<svg width="18" height="16" viewBox="0 0 18 16" fill="none" xmlns="http://www.w3.org/2000/svg">
<path fill-rule="evenodd" clip-rule="evenodd" d="M0.600037 2.00002C0.600037 1.68176 0.726465 1.37653 0.951508 1.15149C1.17655 0.926447 1.48178 0.800018 1.80004 0.800018H16.2C16.5183 0.800018 16.8235 0.926447 17.0486 1.15149C17.2736 1.37653 17.4 1.68176 17.4 2.00002C17.4 2.31828 17.2736 2.6235 17.0486 2.84855C16.8235 3.07359 16.5183 3.20002 16.2 3.20002H1.80004C1.48178 3.20002 1.17655 3.07359 0.951508 2.84855C0.726465 2.6235 0.600037 2.31828 0.600037 2.00002Z" fill="white"/>
<path fill-rule="evenodd" clip-rule="evenodd" d="M0.600037 8.00002C0.600037 7.68176 0.726465 7.37653 0.951508 7.15149C1.17655 6.92645 1.48178 6.80002 1.80004 6.80002H16.2C16.5183 6.80002 16.8235 6.92645 17.0486 7.15149C17.2736 7.37653 17.4 7.68176 17.4 8.00002C17.4 8.31828 17.2736 8.6235 17.0486 8.84855C16.8235 9.07359 16.5183 9.20002 16.2 9.20002H1.80004C1.48178 9.20002 1.17655 9.07359 0.951508 8.84855C0.726465 8.6235 0.600037 8.31828 0.600037 8.00002Z" fill="white"/>
<path fill-rule="evenodd" clip-rule="evenodd" d="M0.600037 14C0.600037 13.6818 0.726465 13.3765 0.951508 13.1515C1.17655 12.9264 1.48178 12.8 1.80004 12.8H16.2C16.5183 12.8 16.8235 12.9264 17.0486 13.1515C17.2736 13.3765 17.4 13.6818 17.4 14C17.4 14.3183 17.2736 14.6235 17.0486 14.8485C16.8235 15.0736 16.5183 15.2 16.2 15.2H1.80004C1.48178 15.2 1.17655 15.0736 0.951508 14.8485C0.726465 14.6235 0.600037 14.3183 0.600037 14Z" fill="white"/>
</svg>
