<svg width="36" height="31" viewBox="0 0 36 31" fill="none" xmlns="http://www.w3.org/2000/svg">
<path fill-rule="evenodd" clip-rule="evenodd" d="M14.712 16.2754L7.19968 3.41333C2.83535 6.60121 -0.000244141 11.7235 -0.000244141 17.5002C-0.000244141 22.836 2.42004 27.6155 6.23121 30.825L14.712 16.2754Z" fill="white"/>
<path fill-rule="evenodd" clip-rule="evenodd" d="M31.8608 21.1359L29.2311 22.6363C28.7246 22.9258 28.0721 22.7521 27.7792 22.2508L26.2606 19.652C25.9689 19.1513 26.1446 18.5061 26.651 18.216L29.2784 16.7162C29.7866 16.4267 30.4397 16.601 30.7314 17.1017L32.2483 19.7005C32.5423 20.2012 32.3672 20.8464 31.8608 21.1359ZM23.8208 15.4984L22.3027 12.9007C22.0117 12.3988 22.1874 11.7548 22.6926 11.4647L25.3194 9.96316C25.8288 9.67421 26.4807 9.84793 26.7741 10.3492L28.291 12.9481C28.5845 13.4482 28.41 14.0951 27.9012 14.3841L25.2744 15.8844C24.768 16.1734 24.1137 16.0002 23.8208 15.4984ZM19.8866 8.82138L18.3709 6.22369C18.075 5.72182 18.2537 5.07606 18.7595 4.78652L21.3887 3.28675C21.8939 2.99721 22.5482 3.16918 22.8399 3.67105L24.3591 6.2699C24.6514 6.77061 24.4757 7.41695 23.9693 7.70591L21.3407 9.20568C20.8331 9.49639 20.1806 9.32266 19.8866 8.82138ZM17.7011 0C15.6583 0 13.6936 0.34394 11.8696 0.973912L29.2589 30.7534C33.0198 27.5433 35.401 22.7971 35.401 17.5C35.401 7.83809 27.4758 0 17.7011 0Z" fill="white"/>
</svg>
