<svg width="182" height="35" viewBox="0 0 182 35" fill="none" xmlns="http://www.w3.org/2000/svg">
<path fill-rule="evenodd" clip-rule="evenodd" d="M41.0488 28.9835V4.91772H47.3311V23.567H58.0691V28.9835H41.0488Z" fill="white"/>
<path fill-rule="evenodd" clip-rule="evenodd" d="M112.046 18.959V25.264H116.505C118.242 25.264 119.342 25.2154 119.807 25.1183C120.521 24.992 121.106 24.6773 121.555 24.1795C122.005 23.6788 122.231 23.0132 122.231 22.1767C122.231 21.469 122.057 20.8694 121.711 20.3746C121.364 19.8815 120.862 19.5223 120.205 19.2965C119.548 19.0713 118.125 18.959 115.936 18.959H112.046ZM112.046 9.58313V15.0359H115.202C117.079 15.0359 118.244 15.0084 118.702 14.9551C119.524 14.858 120.173 14.5773 120.646 14.1111C121.117 13.6437 121.351 13.0301 121.351 12.2691C121.351 11.5391 121.149 10.9478 120.741 10.4915C120.335 10.0365 119.731 9.75978 118.93 9.66385C118.451 9.61004 117.079 9.58313 114.813 9.58313H112.046ZM107.232 5.65942H116.765C118.653 5.65942 120.06 5.73663 120.987 5.8934C121.913 6.04899 122.744 6.37187 123.475 6.86497C124.207 7.35748 124.819 8.01436 125.305 8.83385C125.794 9.65626 126.036 10.5752 126.036 11.5936C126.036 12.6979 125.736 13.7098 125.133 14.6329C124.532 15.5565 123.714 16.2473 122.686 16.7076C124.14 17.1253 125.255 17.8389 126.036 18.8473C126.817 19.854 127.208 21.0385 127.208 22.4014C127.208 23.4718 126.955 24.5147 126.451 25.5284C125.946 26.5421 125.26 27.3522 124.386 27.957C123.514 28.563 122.437 28.9362 121.157 29.076C120.356 29.1614 118.418 29.2146 115.351 29.2357H107.232V5.65942Z" fill="white"/>
<path fill-rule="evenodd" clip-rule="evenodd" d="M134.364 9.64691V25.264H137.96C139.305 25.264 140.276 25.1886 140.872 25.0382C141.653 24.8452 142.298 24.5194 142.815 24.0573C143.33 23.597 143.75 22.8383 144.076 21.7825C144.402 20.7255 144.564 19.286 144.564 17.4639C144.564 15.6407 144.402 14.2416 144.076 13.2659C143.75 12.2914 143.295 11.5304 142.71 10.9823C142.122 10.4366 141.382 10.0657 140.48 9.8727C139.808 9.72412 138.49 9.64691 136.529 9.64691H134.364ZM129.55 5.65942H138.351C140.335 5.65942 141.846 5.80917 142.888 6.10865C144.288 6.51635 145.485 7.24108 146.482 8.27992C147.48 9.32051 148.241 10.5927 148.762 12.1001C149.281 13.6069 149.541 15.4635 149.541 17.6733C149.541 19.6124 149.299 21.2865 148.81 22.6915C148.212 24.4059 147.361 25.7934 146.256 26.855C145.421 27.6599 144.293 28.2875 142.872 28.7373C141.808 29.0702 140.386 29.2357 138.61 29.2357H129.55V5.65942Z" fill="white"/>
<mask id="mask0_3904_248" style="mask-type:alpha" maskUnits="userSpaceOnUse" x="161" y="5" width="21" height="25">
<path fill-rule="evenodd" clip-rule="evenodd" d="M161.823 5.6593H182V29.2327H161.823V5.6593Z" fill="white"/>
</mask>
<g mask="url(#mask0_3904_248)">
<path fill-rule="evenodd" clip-rule="evenodd" d="M181.267 16.6935C180.782 15.5803 180.108 14.5918 179.262 13.7565C178.439 12.9429 177.472 12.2942 176.398 11.8344L179.431 9.37479C179.717 9.14374 179.882 8.79746 179.882 8.43305V5.6593H161.823L163.9 9.36777H173.527L170.431 11.6174V15.22L171.331 15.0878C172.215 14.9574 173.173 14.9767 174.179 15.144C175.06 15.3423 175.792 15.7143 176.418 16.2787C177.059 16.8584 177.528 17.4884 177.814 18.1511C178.103 18.8209 178.25 19.5427 178.25 20.2955C178.25 21.0483 178.103 21.7701 177.814 22.4392C177.523 23.1143 177.118 23.7109 176.611 24.2122C176.102 24.7152 175.499 25.1153 174.816 25.4031C174.279 25.6301 173.697 25.7558 173.107 25.8026L175.029 29.2327C175.461 29.1244 175.884 28.9893 176.292 28.8162C177.418 28.3377 178.417 27.6715 179.262 26.835C180.108 25.9991 180.782 25.0112 181.267 23.8969C181.754 22.7773 182 21.5654 182 20.2955C182 19.0256 181.754 17.8136 181.267 16.6935Z" fill="white"/>
</g>
<path fill-rule="evenodd" clip-rule="evenodd" d="M68.1944 5.65918H62.2357L67.1893 14.4957L59.5332 29.267H65.5245L70.3544 19.6601L75.3446 29.236L81.4193 29.2337L68.1944 5.65918Z" fill="white"/>
<path fill-rule="evenodd" clip-rule="evenodd" d="M157.337 5.65918H151.378L156.332 14.4957L148.676 29.267H154.667L159.497 19.6601L164.487 29.236L170.562 29.2337L157.337 5.65918Z" fill="white"/>
<path fill-rule="evenodd" clip-rule="evenodd" d="M98.792 5.65918L93.1758 19.8578L87.5596 5.65918H82.3818V29.236H87.5247L87.5596 17.9404L91.95 29.236H92.4523H93.8988H94.4016L98.792 17.9404L98.8269 29.236H103.969V5.65918H98.792Z" fill="white"/>
<mask id="mask1_3904_248" style="mask-type:alpha" maskUnits="userSpaceOnUse" x="0" y="3" width="15" height="28">
<path fill-rule="evenodd" clip-rule="evenodd" d="M0 3.41333H14.712V30.825H0V3.41333Z" fill="white"/>
</mask>
<g mask="url(#mask1_3904_248)">
<path fill-rule="evenodd" clip-rule="evenodd" d="M14.7122 16.2754L7.19992 3.41333C2.8356 6.60121 0 11.7235 0 17.5002C0 22.836 2.42028 27.6155 6.23145 30.825L14.7122 16.2754Z" fill="white"/>
</g>
<mask id="mask2_3904_248" style="mask-type:alpha" maskUnits="userSpaceOnUse" x="10" y="21" width="15" height="14">
<path fill-rule="evenodd" clip-rule="evenodd" d="M10.7124 21.4946H24.7916V35H10.7124V21.4946Z" fill="white"/>
</mask>
<g mask="url(#mask2_3904_248)">
<path fill-rule="evenodd" clip-rule="evenodd" d="M17.7591 21.4946L10.7124 33.5823C12.8564 34.4947 15.2193 35.0001 17.7011 35.0001C20.2214 35.0001 22.6198 34.4772 24.7916 33.5366L17.7591 21.4946Z" fill="white"/>
</g>
<path fill-rule="evenodd" clip-rule="evenodd" d="M31.8608 21.1359L29.2311 22.6363C28.7246 22.9258 28.0721 22.7521 27.7792 22.2508L26.2606 19.652C25.9689 19.1513 26.1446 18.5061 26.651 18.216L29.2784 16.7162C29.7866 16.4267 30.4397 16.601 30.7314 17.1017L32.2483 19.7005C32.5423 20.2012 32.3672 20.8464 31.8608 21.1359ZM23.8208 15.4984L22.3027 12.9007C22.0117 12.3988 22.1874 11.7548 22.6926 11.4647L25.3194 9.96316C25.8288 9.67421 26.4807 9.84793 26.7741 10.3492L28.291 12.9481C28.5845 13.4482 28.41 14.0951 27.9012 14.3841L25.2744 15.8844C24.768 16.1734 24.1137 16.0002 23.8208 15.4984ZM19.8866 8.82138L18.3709 6.22369C18.075 5.72182 18.2537 5.07606 18.7595 4.78652L21.3887 3.28675C21.8939 2.99721 22.5482 3.16918 22.8399 3.67105L24.3591 6.2699C24.6514 6.77061 24.4757 7.41695 23.9693 7.70591L21.3407 9.20568C20.8331 9.49639 20.1806 9.32266 19.8866 8.82138ZM17.7011 0C15.6583 0 13.6936 0.34394 11.8696 0.973912L29.2589 30.7534C33.0198 27.5433 35.401 22.7971 35.401 17.5C35.401 7.83809 27.4758 0 17.7011 0Z" fill="white"/>
</svg>
